<svg width="24" height="24" viewBox="0 0 24 24" fill="none" xmlns="http://www.w3.org/2000/svg">
<path d="M6 24C5.21209 24 4.43204 23.8445 3.7041 23.543C2.97615 23.2414 2.31496 22.7993 1.75781 22.2422C1.20066 21.685 0.758559 21.0239 0.457031 20.2959C0.15552 19.568 -1.53658e-07 18.7879 0 18H6L6 24ZM18 18C18 19.5913 17.3674 21.117 16.2422 22.2422C15.117 23.3674 13.5913 24 12 24C10.4087 24 8.88303 23.3674 7.75781 22.2422C6.63259 21.117 6 19.5913 6 18L18 18ZM24 18C24 18.7879 23.8445 19.568 23.543 20.2959C23.2414 21.0239 22.7993 21.685 22.2422 22.2422C21.685 22.7993 21.0239 23.2414 20.2959 23.543C19.568 23.8445 18.7879 24 18 24V18H24ZM6 18C4.4087 18 2.88303 17.3674 1.75781 16.2422C0.632594 15.117 6.93841e-08 13.5913 0 12C5.0582e-08 10.4087 0.632594 8.88303 1.75781 7.75781C2.88303 6.63259 4.4087 6 6 6L6 18ZM12 6C15.3137 6 18 8.68629 18 12C18 15.3137 15.3137 18 12 18C8.68629 18 6 15.3137 6 12C6 8.68629 8.68629 6 12 6ZM18 6C19.5913 6 21.117 6.63259 22.2422 7.75781C23.3674 8.88303 24 10.4087 24 12C24 13.5913 23.3674 15.117 22.2422 16.2422C21.117 17.3674 19.5913 18 18 18L18 6ZM6 6L0 6C-1.53658e-07 5.21209 0.15552 4.43204 0.457031 3.7041C0.758559 2.97615 1.20066 2.31496 1.75781 1.75781C2.31496 1.20066 2.97615 0.758559 3.7041 0.457031C4.43204 0.15552 5.21209 9.04065e-08 6 0L6 6ZM12 0C13.5913 1.2014e-07 15.117 0.632594 16.2422 1.75781C17.3674 2.88303 18 4.4087 18 6L6 6C6 4.4087 6.63259 2.88303 7.75781 1.75781C8.88303 0.632595 10.4087 -1.73926e-10 12 0ZM18 0C18.7879 9.04065e-08 19.568 0.15552 20.2959 0.457031C21.0239 0.758559 21.685 1.20066 22.2422 1.75781C22.7993 2.31496 23.2414 2.97615 23.543 3.7041C23.8445 4.43204 24 5.21209 24 6L18 6V0Z" fill="black"/>
</svg>
